<?xml version="1.0" encoding="iso-8859-1"?>
<!-- Generator: Adobe Illustrator 19.0.0, SVG Export Plug-In . SVG Version: 6.00 Build 0)  -->
<svg xmlns="http://www.w3.org/2000/svg" xmlns:xlink="http://www.w3.org/1999/xlink" version="1.1" id="Capa_1" x="0px" y="0px" viewBox="0 0 512 512" style="enable-background:new 0 0 512 512;" xml:space="preserve" width="512px" height="512px">
<g>
	<g>
		<path d="M512,33.333H0V372h162.775l-26.542,34.667H193v30h-58.667v42h243.333v-42H320v-30h55.766L349.225,372H512V33.333z     M138.909,235.174c0-25.07,13.166-47.111,32.937-59.611c-7.844-8.856-12.619-20.488-12.619-33.22    c0-27.666,22.508-50.173,50.173-50.173c27.665,0,50.173,22.508,50.173,50.173c0,12.732-4.776,24.365-12.619,33.22    c19.77,12.5,32.936,34.54,32.936,59.611v15H138.909V235.174z M373.333,313.164H138.667v-30h234.666V313.164z M373.333,250.174h-64    v-30h64V250.174z M373.333,186.174h-64v-30h64V186.174z M373.333,123.184h-64v-30h64V123.184z" fill="#91DC5A"/>
	</g>
</g>
<g>
	<g>
		<path d="M209.4,122.17c-11.123,0-20.173,9.05-20.173,20.173c0,11.123,9.049,20.173,20.173,20.173    c11.124,0,20.173-9.049,20.173-20.173C229.573,131.219,220.523,122.17,209.4,122.17z" fill="#91DC5A"/>
	</g>
</g>
<g>
	<g>
		<path d="M209.4,194.683c-17.03,0-31.639,10.569-37.611,25.491h75.222C241.038,205.251,226.43,194.683,209.4,194.683z" fill="#91DC5A"/>
	</g>
</g>
<g>
</g>
<g>
</g>
<g>
</g>
<g>
</g>
<g>
</g>
<g>
</g>
<g>
</g>
<g>
</g>
<g>
</g>
<g>
</g>
<g>
</g>
<g>
</g>
<g>
</g>
<g>
</g>
<g>
</g>
</svg>
